#!OML:ASF X:\für Bonn\!DataBase\2005_08_10_Bjorn_Final\c3d\bjorn.ASF
:FULLY-SPECIFIED
:DEGREES
78
root 5.16387 22.7355 5.02493 9.04583 -2.8648 2.16268
lowerback 9.66926 0.871819 -0.195349
upperback 8.43234 1.16111 -1.73703
thorax 3.39885 0.620565 -1.76863
lowerneck 1.51923 -2.54877 -0.218616
upperneck 14.0581 -3.65919 2.22505
head 4.41027 -1.70489 0.664282
rclavicle 7.00716e-015 -6.4605e-015
rhumerus 2.12775 3.23158 -78.8992
rradius 81.9894
rwrist -180.336
rhand 4.48458e-013 -2.51264e-013
rfingers 7.12502
rthumb 25.5904 -28.3008
lclavicle 7.00716e-015 -6.4605e-015
lhumerus 11.9016 -24.4068 69.5981
lradius 75.0007
lwrist -13.3934
lhand -5.40694e-013 -5.1684e-014
lfingers 7.12502
lthumb 25.5904 28.3008
rfemur -37.7389 -13.0372 19.8488
rtibia 41.6705
rfoot 3.72373 12.955
rtoes -8.7685
lfemur -36.915 11.9062 -21.2897
ltibia 38.878
lfoot 9.53706 -7.67339
ltoes -26.5535
79
root 5.17167 22.5681 5.21922 9.264 -2.77593 2.19201
lowerback 9.82271 0.853234 -0.131315
upperback 8.63467 1.14011 -1.65502
thorax 3.52887 0.612022 -1.71947
lowerneck 1.43991 -2.56386 -0.193743
upperneck 14.0026 -3.6673 2.13239
head 4.40234 -1.71101 0.62765
rclavicle -9.11925e-015 1.30204e-014
rhumerus 1.66605 2.47853 -79.4369
rradius 80.3017
rwrist -179.6
rhand -9.86767e-013 6.30545e-013
rfingers 7.12502
rthumb 25.5904 -28.3008
lclavicle -9.11925e-015 1.30204e-014
lhumerus 11.0926 -24.5628 70.507
lradius 73.633
lwrist -12.4318
lhand 2.19458e-012 -8.95326e-013
lfingers 7.12502
lthumb 25.5904 28.3008
rfemur -38.8517 -13.0859 19.994
rtibia 41.2491
rfoot 4.25459 13.1547
rtoes -8.03052
lfemur -38.0556 12.2647 -21.6796
ltibia 38.3105
lfoot 9.46177 -7.66072
ltoes -28.4472
80
root 5.18009 22.3886 5.41533 9.44999 -2.66176 2.20188
lowerback 9.98212 0.822988 -0.0389599
upperback 8.8335 1.10495 -1.5462
thorax 3.65186 0.597012 -1.65738
lowerneck 1.21251 -2.57789 -0.218304
upperneck 14.0377 -3.67443 2.02573
head 4.45741 -1.71792 0.5928
rclavicle -6.36111e-015 1.66575e-014
rhumerus 1.19031 1.68399 -79.9262
rradius 78.6146
rwrist -178.791
rhand 2.38542e-013 -5.37514e-013
rfingers 7.12502
rthumb 25.5904 -28.3008
lclavicle -6.36111e-015 1.66575e-014
lhumerus 10.1558 -24.7085 71.4526
lradius 72.3076
lwrist -11.2419
lhand 1.1291e-013 -1.4551e-012
lfingers 7.12502
lthumb 25.5904 28.3008
rfemur -39.8977 -13.195 20.1575
rtibia 40.9369
rfoot 4.61274 13.0479
rtoes -8.24766
lfemur -39.0887 12.5232 -22.0122
ltibia 37.8645
lfoot 9.09238 -7.27276
ltoes -31.1937
81
root 5.18851 22.1949 5.61438 9.6835 -2.56932 2.23291
lowerback 10.0745 0.802682 0.00455245
upperback 8.99831 1.07991 -1.43501
thorax 3.77481 0.584339 -1.56508
lowerneck 1.0232 -2.5972 -0.206565
upperneck 13.9661 -3.68464 1.89861
head 4.46456 -1.72684 0.545352
rclavicle -6.13748e-015 2.78299e-015
rhumerus 0.679271 0.839846 -80.3937
rradius 76.8691
rwrist -178.131
rhand -1.90833e-014 -1.1609e-013
rfingers 7.12502
rthumb 25.5904 -28.3008
lclavicle -6.13748e-015 2.78299e-015
lhumerus 9.11092 -24.8552 72.3923
lradius 70.9898
lwrist -9.70191
lhand -5.08889e-014 -1.47896e-013
lfingers 7.12502
lthumb 25.5904 28.3008
rfemur -40.9144 -13.2602 20.2795
rtibia 40.7075
rfoot 4.89543 12.6553
rtoes -8.58268
lfemur -40.1269 12.8183 -22.3878
ltibia 37.5686
lfoot 8.67784 -6.64141
ltoes -34.0174
82
root 5.19658 21.9838 5.81592 9.8893 -2.49628 2.25885
lowerback 10.1823 0.798089 0.0881728
upperback 9.14665 1.0785 -1.36215
thorax 3.87458 0.586695 -1.53697
lowerneck 0.869436 -2.6332 -0.10036
upperneck 13.7936 -3.71657 1.75855
head 4.42539 -1.74349 0.477157
rclavicle 8.24956e-015 -9.69075e-015
rhumerus 0.123872 -0.103626 -80.9069
rradius 74.9219
rwrist -177.656
rhand -7.17215e-013 6.55194e-013
rfingers 7.12502
rthumb 25.5904 -28.3008
lclavicle 8.24956e-015 -9.69075e-015
lhumerus 7.99979 -25.1384 73.2194
lradius 69.6194
lwrist -8.17322
lhand -1.08139e-013 2.23275e-012
lfingers 7.12502
lthumb 25.5904 28.3008
rfemur -41.7743 -13.1914 20.3222
rtibia 40.5539
rfoot 5.21754 11.9659
rtoes -8.39833
lfemur -41.0917 13.0728 -22.7269
ltibia 37.4327
lfoot 8.51517 -5.73307
ltoes -35.793
83
root 5.20559 21.764 6.01694 10.0155 -2.43697 2.28185
lowerback 10.3252 0.781034 0.169301
upperback 9.32679 1.0603 -1.28431
thorax 3.98889 0.5806 -1.50148
lowerneck 0.595479 -2.6416 -0.105831
upperneck 13.7256 -3.72983 1.77286
head 4.45486 -1.74832 0.47891
rclavicle 2.03754e-015 3.18055e-015
rhumerus -0.407245 -1.01849 -81.3708
rradius 72.8303
rwrist -177.368
rhand -1.52667e-013 3.37139e-013
rfingers 7.12502
rthumb 25.5904 -28.3008
lclavicle 2.03754e-015 3.18055e-015
lhumerus 6.83297 -25.4159 74.0108
lradius 68.1908
lwrist -6.94294
lhand 6.39291e-013 -1.63799e-013
lfingers 7.12502
lthumb 25.5904 28.3008
rfemur -42.4824 -13.0135 20.2883
rtibia 40.5164
rfoot 5.42059 11.1073
rtoes -8.88908
lfemur -41.9292 13.2499 -23.0027
ltibia 37.4376
lfoot 8.82698 -4.6468
ltoes -36.0907
84
root 5.21302 21.5316 6.21865 10.0791 -2.3777 2.32353
lowerback 10.4761 0.770502 0.22647
upperback 9.54365 1.04944 -1.20736
thorax 4.13856 0.577282 -1.45381
lowerneck 0.131422 -2.61939 -0.110448
upperneck 13.8024 -3.71506 1.85558
head 4.57686 -1.73381 0.501384
rclavicle -9.74045e-015 1.54058e-014
rhumerus -0.9388 -2.01805 -81.8038
rradius 70.6888
rwrist -176.969
rhand -3.72125e-013 7.18805e-013
rfingers 7.12502
rthumb 25.5904 -28.3008
lclavicle -9.74045e-015 1.54058e-014
lhumerus 5.70393 -25.7417 74.7655
lradius 66.7046
lwrist -5.43879
lhand 1.51712e-012 -5.02528e-013
lfingers 7.12502
lthumb 25.5904 28.3008
rfemur -43.0952 -12.7513 20.1704
rtibia 40.6619
rfoot 5.63066 10.1951
rtoes -9.71391
lfemur -42.6735 13.4255 -23.289
ltibia 37.541
lfoot 9.4133 -3.73843
ltoes -35.8896
85
root 5.21999 21.2839 6.42024 10.0661 -2.33016 2.36309
lowerback 10.6394 0.759384 0.278253
upperback 9.79403 1.03764 -1.13645
thorax 4.31817 0.573695 -1.40926
lowerneck -0.456172 -2.61329 -0.069378
upperneck 13.9286 -3.71681 1.85826
head 4.73971 -1.72731 0.486391
rclavicle -6.06293e-015 2.0276e-014
rhumerus -1.44686 -3.12128 -82.2613
rradius 68.4896
rwrist -176.448
rhand -2.60805e-013 6.39291e-013
rfingers 7.12502
rthumb 25.5904 -28.3008
lclavicle -6.06293e-015 2.0276e-014
lhumerus 4.59962 -26.0637 75.456
lradius 65.226
lwrist -3.73869
lhand 1.07503e-012 -3.02153e-013
lfingers 7.12502
lthumb 25.5904 28.3008
rfemur -43.6649 -12.4677 20.0111
rtibia 41.0662
rfoot 5.95647 9.3549
rtoes -11.5833
lfemur -43.2624 13.4776 -23.4869
ltibia 37.7113
lfoot 10.1279 -2.82067
ltoes -35.0394
86
root 5.2268 21.018 6.61973 9.94366 -2.27189 2.39941
lowerback 10.8882 0.737413 0.317362
upperback 10.057 1.01017 -1.05873
thorax 4.46485 0.561257 -1.35055
lowerneck -1.03869 -2.59977 -0.00965331
upperneck 14.0062 -3.70956 1.86217
head 4.88437 -1.71592 0.469134
rclavicle 7.35503e-015 5.1684e-015
rhumerus -2.01393 -4.2543 -82.6782
rradius 66.2964
rwrist -175.916
rhand 1.43125e-013 -2.35361e-013
rfingers 7.12502
rthumb 25.5904 -28.3008
lclavicle 7.35503e-015 5.1684e-015
lhumerus 3.46815 -26.3944 76.1188
lradius 63.667
lwrist -2.14471
lhand -5.66139e-013 -6.99722e-014
lfingers 7.12502
lthumb 25.5904 28.3008
rfemur -44.1834 -12.1461 19.7944
rtibia 41.7458
rfoot 6.41755 8.68029
rtoes -13.74
lfemur -43.6643 13.4755 -23.6213
ltibia 37.9646
lfoot 10.8061 -1.97381
ltoes -33.8333
87
root 5.23323 20.734 6.81744 9.6854 -2.235 2.47389
lowerback 11.1968 0.725801 0.346601
upperback 10.3772 0.996679 -1.01746
thorax 4.64326 0.557018 -1.32572
lowerneck -1.63673 -2.59586 0.169127
upperneck 13.9469 -3.70981 1.78014
head 4.97688 -1.7077 0.401402
rclavicle 5.36719e-015 4.77083e-015
rhumerus -2.52389 -5.55689 -83.1353
rradius 64.0051
rwrist -175.301
rhand 6.01125e-013 -1.21179e-012
rfingers 7.12502
rthumb 25.5904 -28.3008
lclavicle 5.36719e-015 4.77083e-015
lhumerus 2.42262 -26.7249 76.7274
lradius 62.0043
lwrist -0.72083
lhand -1.56801e-012 -3.40319e-013
lfingers 7.12502
lthumb 25.5904 28.3008
rfemur -44.6212 -11.8265 19.4995
rtibia 42.7028
rfoot 6.92128 8.37126
rtoes -15.7486
lfemur -43.8747 13.4894 -23.7612
ltibia 38.3542
lfoot 11.7 -1.306
ltoes -31.8334
88
root 5.23956 20.4374 7.01344 9.30638 -2.20364 2.52472
lowerback 11.5867 0.714166 0.383965
upperback 10.7304 0.983232 -0.961198
thorax 4.81476 0.552859 -1.29062
lowerneck -2.18449 -2.59747 0.353576
upperneck 13.7688 -3.70967 1.64148
head 5.01358 -1.7038 0.314342
rclavicle -4.17448e-015 7.7526e-015
rhumerus -3.08131 -6.92515 -83.5146
rradius 61.8969
rwrist -174.713
rhand -3.21236e-013 5.82042e-013
rfingers 7.12502
rthumb 25.5904 -28.3008
lclavicle -4.17448e-015 7.7526e-015
lhumerus 1.34181 -26.9407 77.3438
lradius 60.3387
lwrist 0.430336
lhand 4.99347e-013 1.43125e-013
lfingers 7.12502
lthumb 25.5904 28.3008
rfemur -44.9507 -11.531 19.226
rtibia 43.882
rfoot 7.10197 8.73306
rtoes -17.4416
lfemur -43.938 13.3838 -23.7735
ltibia 38.9981
lfoot 12.524 -0.840518
ltoes -28.8268
89
root 5.24453 20.1297 7.20785 8.93903 -2.19907 2.62036
lowerback 11.889 0.709141 0.358031
upperback 11.0938 0.974875 -0.931209
thorax 5.04656 0.54847 -1.2465
lowerneck -2.74993 -2.61407 0.707758
upperneck 13.5198 -3.71913 1.31251
head 5.01911 -1.70711 0.131703
rclavicle -6.16232e-015 5.96354e-015
rhumerus -3.64752 -8.34472 -83.8797
rradius 60.0259
rwrist -174.019
rhand -1.32311e-012 1.83836e-012
rfingers 7.12502
rthumb 25.5904 -28.3008
lclavicle -6.16232e-015 5.96354e-015
lhumerus 0.236069 -27.012 77.9656
lradius 58.7467
lwrist 1.60568
lhand 1.82564e-012 1.35492e-012
lfingers 7.12502
lthumb 25.5904 28.3008
rfemur -45.3098 -11.2752 18.9517
rtibia 45.24
rfoot 7.09945 9.65621
rtoes -17.4773
lfemur -44.0112 12.9588 -23.6771
ltibia 40.0331
lfoot 12.4234 -0.608763
ltoes -24.49
90
root 5.25024 19.8029 7.3999 8.51552 -2.2127 2.75335
lowerback 12.2233 0.707368 0.27465
upperback 11.4534 0.965673 -0.885787
thorax 5.2574 0.538769 -1.15435
lowerneck -3.29656 -2.63138 0.995402
upperneck 13.1593 -3.72599 0.979919
head 4.98121 -1.71506 -0.0391579
rclavicle -1.03368e-014 8.54774e-015
rhumerus -4.20485 -9.83266 -84.1992
rradius 58.2365
rwrist -173.157
rhand 2.54444e-013 5.88403e-013
rfingers 7.12502
rthumb 25.5904 -28.3008
lclavicle -1.03368e-014 8.54774e-015
lhumerus -0.951774 -26.9575 78.7093
lradius 57.1759
lwrist 2.99649
lhand 5.37514e-013 -4.89805e-013
lfingers 7.12502
lthumb 25.5904 28.3008
rfemur -45.5725 -11.0277 18.6521
rtibia 46.7791
rfoot 6.80791 10.9579
rtoes -14.8831
lfemur -44.1021 12.4329 -23.5921
ltibia 41.5396
lfoot 11.2579 -1.07958
ltoes -20.0389
